/* XPM */
static char *_4683b1be9c941aceb23a3092bb44e01YF7YRs6xpb0PzTE9[] = {
/* columns rows colors chars-per-pixel */
"64 64 130 2 ",
"   c None",
".  c #050300",
"X  c #0B0600",
"o  c #0E0800",
"O  c #130B00",
"+  c #190E00",
"@  c #1D1100",
"#  c #1D1408",
"$  c #231400",
"%  c #291700",
"&  c #2C1900",
"*  c #231A0F",
"=  c #341D00",
"-  c #381F00",
";  c #3C2200",
":  c #3D230A",
">  c #2E2417",
",  c #2E261A",
"<  c #362814",
"1  c #32271A",
"2  c #33291C",
"3  c #3A2D1D",
"4  c #352E23",
"5  c #3E3121",
"6  c #3C342B",
"7  c #422500",
"8  c #472800",
"9  c #4B2B00",
"0  c #42260A",
"q  c #49290A",
"w  c #522E00",
"e  c #522D09",
"r  c #563100",
"t  c #5B3400",
"y  c #5D330C",
"u  c #603700",
"i  c #653900",
"p  c #6C3D00",
"a  c #63360C",
"s  c #67390E",
"d  c #6D3B0F",
"f  c #703F00",
"g  c #723E0D",
"h  c #463929",
"j  c #403931",
"k  c #483F34",
"l  c #744200",
"z  c #7B4600",
"x  c #7E4800",
"c  c #77410F",
"v  c #79410F",
"b  c #734011",
"n  c #7C4411",
"m  c #4D4335",
"M  c #4D463C",
"N  c #534736",
"B  c #50473B",
"V  c #564B3E",
"C  c #5F5446",
"Z  c #5C564D",
"A  c #60574C",
"S  c #60594F",
"D  c #645C51",
"F  c #685F53",
"G  c #655F58",
"H  c #6B645C",
"J  c #6E6962",
"K  c #756D62",
"L  c #777068",
"P  c #7D766D",
"I  c #7F7971",
"U  c #844B00",
"Y  c #8A4E00",
"T  c #8E5100",
"R  c #935400",
"E  c #995600",
"W  c #9D5900",
"Q  c #844913",
"!  c #8C4D14",
"~  c #934F12",
"^  c #955012",
"/  c #9F5615",
"(  c #A45D00",
")  c #A35917",
"_  c #AC6100",
"`  c #B36600",
"'  c #B76800",
"]  c #BC6A00",
"[  c #C26E00",
"{  c #C67000",
"}  c #CC7300",
"|  c #D17600",
" . c #D57900",
".. c #DC7D00",
"X. c #E07F00",
"o. c #847C73",
"O. c #E48100",
"+. c #EB8500",
"@. c #EF8800",
"#. c #F78C00",
"$. c #F38A00",
"%. c #F98D00",
"&. c #FB8E00",
"*. c #FC8F00",
"=. c #FC8E00",
"-. c #FE9000",
";. c #FF9000",
":. c #FF9100",
">. c #FF9200",
",. c #FF9300",
"<. c #FF9100",
"1. c #888177",
"2. c #8A847D",
"3. c #8E877F",
"4. c #8E8880",
"5. c #8F8A84",
"6. c #908981",
"7. c #908A81",
"8. c #908B84",
"9. c #918B84",
"0. c #908B85",
"q. c #918C86",
"w. c #938E88",
"e. c #969087",
"r. c #949089",
"t. c #97928B",
"y. c #98928B",
"u. c #98938D",
"i. c #9A958E",
"p. c #A09D98",
/* pixels */
"                                                                                                                                ",
"                                                                                                                                ",
"                                                :.:.:.&.$.@.O.O.+.@.$.:.:.:.:.                                                  ",
"                                *.:.:.      +.+.} W z r ; = & & & ; 9 i T ` ..&.:.:.                                            ",
"                            :.:.*.:.*.} O o t s + . . . . . . X . . . . . o % r R } $.:.                                        ",
"                              :.:. .p % 9 U U - X X X X X o X o o o X X o X X . X $ u ] &.:.                                    ",
"                                i = r Y f = O . o o o o o o o o o o o o o o X o o X X + p } *.:.                                ",
"                              . 7 Y p % X X O O o o O O O o o o O o O o o O o o O o o X X % Y @.:.                              ",
"                    *.:.    + p U = . X X : g n = : & # o O o o o C 6 . o o O o o o O o X X X e  .:.                            ",
"                  :.:.    & Y u o . X o O ! - a d 0 q n & @ 4 4 O J Z O 6 1 + + 4 4 O o O X X X = ' :.                          ",
"                :.:.  . ; R 7 . o o o o @ ~ d ) s s y ) y H 5.5.Z J D P 2.w.k S 0.0.G O X O X X . $ _ :.                        ",
"              :.:.  . ; R & . o o o o o $ ~ q s Q n a n * u.> 1 5.L I 5.+ B 6.i.4 1 p.* O O O O o X @ ( :.                      ",
"            :.:.    ; R % . o o o O O O $ ~ q a ! Q a ! 0 4.A N u.P K y.N D 6.6.S S e.$ O O O X o X X @ ` :.                    ",
"            *.:.  % R = . o o O O O O O + a g n < q - y y 5 o.P D C h k o.6.o.3 o.o.4 + O O O O o o o X % } :.                  ",
"          :.:.*.u U 7 . o o o O O + + + + + + + @ + $ $ $ @ $ @ + $ @ h K e.A @ @ @ + + + O O O o o o X X 8 +.:.                ",
"        :.:.:.} T t . X o o O O O O + + + @ + $ $ $ $ $ $ $ $ $ $ $ $ < N h % $ $ @ @ + + + + O O O o o X . z :.                ",
"        :.:.$.Y U o X X o O O O + + + @ @ @ $ $ $ $ $ % $ % % ; = % % & % $ $ % $ $ $ @ @ + + O O O O o o X + ] :.              ",
"      :.*.:.` R ; . . X o o O + + + @ @ $ @ $ @ @ $ % $ % % l ..} r & & & & & % % % $ @ @ @ + + + O O o o o X w $.:.            ",
"      :.:.+.U l . X X X o o O + @ @ $ $ $ @ @ $ $ $ % % $ i @.,.:.| 9 & & & & & & % % @ @ @ @ @ + O O O O o o O _ :.            ",
"    :.*.:.` T & . X X o o O O + + @ @ @ @ @ $ $ $ % % & r  ...-.:.:.] 8 & = ; & & & % % $ @ @ @ + + + O O o O o 9 $.            ",
"    :.:.$.Y z . X X X o o O O + + @ @ @ @ $ $ $ % % % 9 | _ 9 ] :.:.:.` ; = = & & & % % $ $ @ @ + + + + O O o o + ] ,.          ",
"    *.:.} x ; . X X o o O O O + + + @ @ $ $ $ % % % ; { ` ; & 9 } $.:.*.W ; ; & ; % % % % $ $ $ @ @ @ + + + O O X p :.          ",
"  :.*.:.T % O X X X o O O + + + @ @ @ @ @ $ % % & ; ' { 7 & ; & r | *.*.#.T ; ; ; & % $ $ $ $ @ $ @ @ + + + O O o = O.:.        ",
"  *.:.$.U w . X o O O O + + @ @ @ $ $ @ % % % % = R { 9 & & & & & i O.:.-.@.z & ; & $ @ @ @ @ + + + @ @ + + + O o + ' :.        ",
"  *.:...T 8 . X O O $ ; 7 8 7 % % % $ $ % % % ; l ( l r r r r r r r E ......} p w 9 w 9 9 9 8 8 7 ; $ @ @ + + O O o U :.        ",
"  :.:.' T $ . o o O & _ } ....U % % % $ % % = ( @.O.X.O.+.+.+.+.+.O...+.$.@.$.+...O.+.+.+.+.O.O. ._ & @ @ + + + O o r &.        ",
":.*.:.( U + X X o O @ r } @.$.+.z & % % % % t R l p p p p p p i p i i i R O.O... .U u t t t t ` O.u + @ @ @ + + + o = +.        ",
"*.:.*.E x o X o o o + @ p ..$.:.+.p % % $ u ..z = = = = = = = = & = = & 8 ] :.:.*.[ ; $ @ @ l O.x + @ $ @ @ + + O O %  .,.      ",
":.*.#.Y f X o o o O O @ $ z O.$.*...t $ w ..( - = = - - - ; = ; = = = = ; r | :.*.:.( = $ u O.R $ @ $ @ @ @ @ + + O @ { ,.      ",
"*.:.$.R i X o o O O O + @ % T +.#.:.| i | ' - & = - ; ; ; ; ; = ; = = ; ; ; u ..:.:.$.f w ..( % + $ $ $ $ $ @ + + O + ' ,.      ",
":.*.$.Y u X o o o O O + @ @ = W @.#.*.X.] 7 = = = ; ; ; ; ; ; - ; = = = = ; ; p +.:.+.W | ` = $ $ $ % $ $ @ @ + O O + ` ,.      ",
"*.:.@.R u X o o O O + + @ @ $ ; ` @.*.*.' 7 - - ; ; ; 7 ; ; ; ; = ; ; = = = = ; x O.[ ....t % % % % % $ $ @ @ + + + + ` ,.  :.:.",
"*.*.@.R i X o o O O O + + @ $ $ 9  .*.*.:.( 7 ; 7 ; ; 7 7 ; 7 ; ; ; - = = = = = ; l | O._ [ u & & & % % $ @ @ + + + + ' :.  :.:.",
":.*.#.R p X o O O O O + + @ @ % z ( ..&.:.&.R 7 ; 7 7 ; 7 ; ; ; ; ; = ; = = = & = R ..W | :...w & % % $ % @ @ + + O + { ,.  :.:.",
"*.:.*.R l o o o O O + O @ + @ z X.i i X.*.:.$.U 7 7 ; 7 ; ; ; ; = - = = = = = & U O.p z $.:.:.} 8 % % % $ @ $ + + O $  .:.  *.:.",
":.*.*.R ; o o o O O O + + + u +.Y % & z @.*.*.@.l ; 7 7 ; 7 ; ; ; ; ; = = = & l O.x % ; ] :.*.*.` = % $ $ $ + + + O = O.    :.*.",
"  *.:.` U % o O O O O + + w O.E % % & = Y $.*.:.O.i ; 7 ; 7 ; ; ; - - = = = i X.R & % % 9 | :.:.*.( & $ $ + + + + O w $.    :.  ",
"  :.:. .l & X o O O O O 8 ....p t r w 9 9 ( &.*.:.| r ; ; ; ; ; ; ; - = & w ..( & % % & & r ..:.:.*.T % $ @ + + + o x :.    :.  ",
"  *.:.$.i 8 o o O O O $ _ $.@.+.+...[ E z i ] :.:.:.{ 9 ; ; ; ; = = = = 9 | ` - % & & & & & i O.$.$.+.i + @ + + O O ` :.  :.:.  ",
"  :.*.*.W l o o o O O + ; 8 8 8 9 9 9 8 7 ; 9 [ &.:.:.` 7 ; ; ; = ; = 7 ] [ 7 % & % % & & % % 8 w w 9 ; @ + + + O & ..:.  *.:.  ",
"    :.:.[ 9 % o O O O O O O O + + + @ @ % & & w } *.*.*.( ; - = ; = ; _ } 9 & & % % % % % % % $ $ @ @ + + + + + O u &.    :.    ",
"    *.:.@.Y p o o O O O O + + + + + @ $ $ % & & t ..:.*.&.Y = = = = E  .r % % % % % % % % % $ @ @ @ @ @ + + + O + _ :.  :.:.    ",
"    :.*.:._ R % o o O O O + + + @ + @ @ @ $ % & = p +.*.*.$.l = = U ..i % % % % $ % $ $ $ $ $ $ @ @ @ + + + O o 7 @.:.  *.:.    ",
"      :.:.X.Y i X o o O O O O + + + + + @ @ $ % & & z @.:.:.+.i l ..z & % % $ % $ $ $ $ $ @ @ @ @ @ @ + O O O + E :.    :.      ",
"      :.*.:.( R & o o o o O O + + + + + + @ @ $ % % = Y $.*.:.O...U & % $ $ $ @ @ $ @ @ @ @ + + @ + + O O O O @ | :.  :.*.      ",
"        :.:.+.Y x o o O O O O O O O + + + + + @ $ % % = ( &.&.&.R & % % $ @ @ @ @ @ @ + @ @ + + + + + O O O o o       *.        ",
"        :.*.:.] T r X o o o o O O O + O O + + + + $ % % = ( ..R & % $ $ $ @ @ + @ + + + + + + + + O O O O o ; (     *.:.        ",
"          :.*.*.E R = X o o o O o O O O O O O + + + @ $ $ % ; % $ @ @ @ @ + + + + + + + + O O + O O O o o o ( ,.    :.          ",
"          :.*.:.@.Y R $ X o o o o O o O O O O O + + + @ @ $ + @ @ + + + + + + O + O O + O O O O o O o o o O +.:.*.              ",
"            :.  :...U Y + X o o o o o O o o O O o O + + + + + + + + O O O O O O O O O O O o O o o o o o r     :.:.              ",
"                *.:.| U U @ X X o o o o o o o o O o o O O O O O O O O O o o O O o o o o O o o o o X X O | :.  :.*.:.            ",
"                *.:.:.} Y Y & . X X X o o o X o o o o o o O o o o o O o o o o o o o o o o X o X X X 8 W   :.    :.              ",
"                  :.:.:. .Y R 8 . X X X X X X X X X X o o X o X o X o o o o o X X o X o o X X X X O | :.  :.                    ",
"                    *.*.:.O.R R l @ . . X X X X X X o X X X X X X X X X X X X X X X X X X X . o p     :.                        ",
"                      :.:.:.$.` U T w O . . . X X X X . X . X X X X . X X . X . . X . X X . @ ; $.:.  :.                        ",
"                        *.*.*.:...R T U r @ . . . . . X . X . X . . X . X . . . o X . . . ; |   ,.:.                            ",
"                          :.*.:.:.&.} R Y Y l 7 @ X . . . . . . . . . . . O & r U ; . 9 W   :.    :.                            ",
"                              *.:.*.:.*.` @ u T T U p r ; ; & & = - 9 u l Y T Y E (   $.,.  :.:.                                ",
"                                  :.:.:.    O. .z & 9 u U T T U Y Y Y Y R ( [ O.*.,.  :.:.                                      ",
"                                          :.:.:.         .| } } }  .X.@.-.:.,.:.      :.:.                                      ",
"                                        :.*.:.          ,.,.,.,.,.:.                                                            ",
"                                        :.:.                                                                                    ",
"                                                                                                                                ",
"                                                                                                                                "
};
