/* XPM */
static char *cfdde86c88c94d20f09b1019bfe6fdccc6y01p1Xuh6XpKkr[] = {
/* columns rows colors chars-per-pixel */
"16 16 144 2 ",
"   c None",
".  c #090500",
"X  c #0C0700",
"o  c #0D0700",
"O  c #0E0800",
"+  c #0F0800",
"@  c #0F0900",
"#  c #100900",
"$  c #110A00",
"%  c #120A00",
"&  c #130B00",
"*  c #130B01",
"=  c #150C00",
"-  c #160C00",
";  c #170D00",
":  c #180D00",
">  c #180E00",
",  c #190E00",
"<  c #1A0F00",
"1  c #1B0F00",
"2  c #1C1000",
"3  c #1D1000",
"4  c #1D1100",
"5  c #1E1100",
"6  c #1F1100",
"7  c #1C1002",
"8  c #201200",
"9  c #231401",
"0  c #241400",
"q  c #241500",
"w  c #251500",
"e  c #261500",
"r  c #261600",
"t  c #281600",
"y  c #281700",
"u  c #281701",
"i  c #2A1800",
"p  c #2B1800",
"a  c #2E1A00",
"s  c #2E1B02",
"d  c #301B00",
"f  c #311C00",
"g  c #321C00",
"h  c #331D00",
"j  c #341D00",
"k  c #351E00",
"l  c #361E00",
"z  c #371F00",
"x  c #382000",
"c  c #392000",
"v  c #3A2100",
"b  c #3B2100",
"n  c #3C2200",
"m  c #3D2300",
"M  c #3E2300",
"N  c #3F2300",
"B  c #3A2005",
"V  c #352F28",
"C  c #3B3022",
"Z  c #412500",
"A  c #442600",
"S  c #442700",
"D  c #442607",
"F  c #462800",
"G  c #472801",
"H  c #482900",
"J  c #4A2A00",
"K  c #4B2B00",
"L  c #4D2B00",
"P  c #4E2C00",
"I  c #4F2D00",
"U  c #4D2A0A",
"Y  c #522E00",
"T  c #532F00",
"R  c #593200",
"E  c #5A3300",
"W  c #5C3400",
"Q  c #5F3600",
"!  c #56300D",
"~  c #633800",
"^  c #643900",
"/  c #673A00",
"(  c #683B00",
")  c #693B00",
"_  c #6A3C00",
"`  c #6C3D00",
"'  c #6D3E00",
"]  c #6F3F00",
"[  c #463522",
"{  c #46392A",
"}  c #463F36",
"|  c #724100",
" . c #734200",
".. c #744100",
"X. c #754200",
"o. c #764300",
"O. c #784400",
"+. c #7A4500",
"@. c #7E4800",
"#. c #7F4800",
"$. c #4E4334",
"%. c #504941",
"&. c #5C5143",
"*. c #804900",
"=. c #824A00",
"-. c #834A00",
";. c #864C00",
":. c #894D00",
">. c #8C4F00",
",. c #8E5000",
"<. c #8F5100",
"1. c #905100",
"2. c #915200",
"3. c #925200",
"4. c #945400",
"5. c #965500",
"6. c #975500",
"7. c #9A5700",
"8. c #9E5900",
"9. c #A25C00",
"0. c #A35C00",
"q. c #A55D00",
"w. c #A85F00",
"e. c #A95F00",
"r. c #AB6100",
"t. c #B16400",
"y. c #B36500",
"u. c #B56600",
"i. c #B56700",
"p. c #B86800",
"a. c #BA6900",
"s. c #C06D00",
"d. c #C16D00",
"f. c #C36E00",
"g. c #D07600",
"h. c #D17600",
"j. c #D67900",
"k. c #DC7D00",
"l. c #E28000",
"z. c #E38000",
"x. c #EA8400",
"c. c #F18800",
"v. c #FC8E00",
"b. c #FF9100",
/* pixels */
"            q.>.4.              ",
"        ;.H y < 1 y P 5.        ",
"    p.Z 2 U ! { %.} V e X.      ",
"  x.E = = B D [ $.&.C * 7 #.    ",
"  u.8 & < 2 e X.+.a e 2 & d     ",
"c.~ @ 2 2 e W | d.O.d y 2 < X.  ",
"k.v y 2.P Y +.` -.d.2.O.H = Y   ",
"g.a & _ d.] z b z ` p.| a 7 G   ",
"g.d & b 0.t.P b v Z <.t.Z 7 H c.",
"z.S < X./ q.e.Z b / b -.#.2 / b.",
"v.:.= 8 0 h e.7.) Z e 9 e 2 8.  ",
"  j.S X * < z 4.H 2 2 < & z     ",
"    u.z . & & * & & & X e r.    ",
"      d.E < X . . @ & z q.      ",
"        z.5.Y Q ) -.>.          ",
"                                "
};
