/* XPM */
static char *_075ee1702204f51cbe8f75aa935894cbScTzdZc2mRdHEKT[] = {
/* columns rows colors chars-per-pixel */
"32 32 124 2 ",
"   c None",
".  c #060400",
"X  c #0B0600",
"o  c #0E0800",
"O  c #130B00",
"+  c #190E00",
"@  c #1D1100",
"#  c #1B1308",
"$  c #231400",
"%  c #281700",
"&  c #271907",
"*  c #2C1900",
"=  c #261808",
"-  c #291B09",
";  c #341E00",
":  c #3B2200",
">  c #282117",
",  c #2A2319",
"<  c #332512",
"1  c #382A18",
"2  c #373027",
"3  c #3C352B",
"4  c #442601",
"5  c #472800",
"6  c #4B2B00",
"7  c #422509",
"8  c #47280A",
"9  c #512E00",
"0  c #522D0A",
"q  c #563100",
"w  c #5D3500",
"e  c #5E340B",
"r  c #613700",
"t  c #663900",
"y  c #6C3E00",
"u  c #62360D",
"i  c #733F0E",
"p  c #713F10",
"a  c #734100",
"s  c #7B4600",
"d  c #5A442D",
"f  c #474138",
"g  c #614E3A",
"h  c #62594C",
"j  c #655D52",
"k  c #6B6257",
"l  c #6D665D",
"z  c #746C63",
"x  c #844B00",
"c  c #8A4E00",
"v  c #8D5000",
"b  c #935400",
"n  c #995700",
"m  c #9E5A00",
"M  c #A75F00",
"N  c #A65E00",
"B  c #A55E00",
"V  c #A35D00",
"C  c #AB6100",
"Z  c #AD6200",
"A  c #AF6300",
"S  c #AC6200",
"D  c #B06400",
"F  c #B36500",
"G  c #B46600",
"H  c #B76700",
"J  c #B96900",
"K  c #BA6900",
"L  c #BD6B00",
"P  c #BE6C00",
"I  c #C06D00",
"U  c #C16D00",
"Y  c #C26E00",
"T  c #C36E00",
"R  c #C56F00",
"E  c #C67000",
"W  c #C77100",
"Q  c #C87100",
"!  c #C97200",
"~  c #CA7200",
"^  c #CB7300",
"/  c #CE7500",
"(  c #CA7300",
")  c #D07600",
"_  c #D17600",
"`  c #D17600",
"'  c #D77A00",
"]  c #D87A00",
"[  c #DA7B00",
"{  c #DC7C00",
"}  c #DD7D00",
"|  c #DE7D00",
" . c #DC7D00",
".. c #E07F00",
"X. c #E17F00",
"o. c #E17F00",
"O. c #E38000",
"+. c #E48100",
"@. c #E68200",
"#. c #E48100",
"$. c #E88300",
"%. c #E88400",
"&. c #E98400",
"*. c #ED8600",
"=. c #EE8700",
"-. c #EC8600",
";. c #F08800",
":. c #F18800",
">. c #F18900",
",. c #F28900",
"<. c #F38900",
"1. c #F38A00",
"2. c #F48A00",
"3. c #F58B00",
"4. c #F38A00",
"5. c #FC8F00",
"6. c #FD8F00",
"7. c #FA8D00",
"8. c #FE9000",
"9. c #FF9000",
"0. c #FF9100",
"q. c #FF9200",
"w. c #FF9300",
"e. c #FF9100",
/* pixels */
"                                                                ",
"                0.    ] T V b x c m K }                         ",
"              w.$.n 9 r $ o . . . o + ; y D 2.                  ",
"                t 9 ; + o o o o O O . o . + t ~                 ",
"          1.6 9 ; O ; u 8 7 = > 3 2 > # , # . * V               ",
"        1.q 9 $ X X 0 p i i g j z z h l j f O . + b             ",
"      w.y 9 @ o O O 8 u e e d j j j z z j 3 O O X + V           ",
"    w.@.a @ X O O + @ $ $ $ % - = < h 1 = + + O O X & T         ",
"    6.F : . X O + + @ $ $ $ * y t * * $ $ $ + + O O X q *.      ",
"  w.@.y X X O O @ $ @ $ $ % a @.*.t * * * $ $ + + O O + C       ",
"  w.A ; X o O O + @ $ $ % t c y &.o.w ; * % $ $ + + O o w 3.    ",
"  3.y X o O + + $ $ $ $ 9 b : * a 1._ 9 ; $ $ @ @ @ + O * /     ",
"w.o.r X O 5 c a % $ $ 9 A V b b b ~ @.P c v c c a $ + + O M     ",
"w._ 5 X O ; J :.x % 4 x r w r w w q V 3.~ r 9 M s $ @ + O x     ",
"w.R : X O O 4 ^ *.s b w ; ; ; ; ; ; 5 L 6.c y c % $ @ + O a     ",
"6.U ; X O O @ q [ 3.c ; ; : 4 : : ; ; 6 R _ M ; $ $ $ + O y     ",
"w.U : o O + @ % b *.[ r : : : : : ; ; * y W ~ s % $ $ @ O y   w.",
"w.W : o O O + a s x 3._ q 4 : : : ; ; 6 m t | &.r $ $ @ O x   6.",
"w.| 6 o O O y H q 6 V 7.U 6 : : : ; 5 m q $ y 1.O.q @ @ + V   w.",
"  1.a O O @ s b c y q A w.A 4 : ; 4 b r $ * * a V t @ O % ~     ",
"  6.M * X O O + @ $ $ : J 8.b : : c y % % * $ $ $ $ + O w 1.w.  ",
"  w.@.t O O O + + + $ % 5 ^ 7.x s s * $ $ $ $ $ + + O + M   6.  ",
"    6.A ; o O O O @ + @ $ 9 [ *.x * $ $ @ @ @ @ + O O $ ~ w.    ",
"    w.$.x @ o O O O O O @ $ 9 a * $ @ O @ O + O O O O c   w.    ",
"      w._ y O o o O O O O + + + + O O O O O O O O o 5 1.w.      ",
"        6.~ t + X X X X o O O O O O O O O o o X X 4 O.  6.      ",
"          6._ x * X X X X X X o X X X X X X X o 5 @.            ",
"            w.@.M w $ X . . . . . . . X o . @ s 3.              ",
"              w.7.' s t 6 ; $ @ $ * 4 y a t / w.                ",
"                      O.  t C C C H ~ |                         ",
"                    w.                                          ",
"                                                                "
};
